<?xml version="1.0" encoding="UTF-8" standalone="no"?>
<!-- Created with Inkscape (http://www.inkscape.org/) -->

<svg
   width="38.236168mm"
   height="47.492706mm"
   viewBox="0 0 38.236168 47.492706"
   version="1.1"
   id="svg5"
   inkscape:version="1.1.2 (0a00cf5339, 2022-02-04)"
   sodipodi:docname="christmas-tree.svg"
   xmlns:inkscape="http://www.inkscape.org/namespaces/inkscape"
   xmlns:sodipodi="http://sodipodi.sourceforge.net/DTD/sodipodi-0.dtd"
   xmlns="http://www.w3.org/2000/svg"
   xmlns:svg="http://www.w3.org/2000/svg">
  <sodipodi:namedview
     id="namedview7"
     pagecolor="#ffffff"
     bordercolor="#cccccc"
     borderopacity="1"
     inkscape:pageshadow="0"
     inkscape:pageopacity="1"
     inkscape:pagecheckerboard="0"
     inkscape:document-units="mm"
     showgrid="false"
     fit-margin-top="0"
     fit-margin-left="0"
     fit-margin-right="0"
     fit-margin-bottom="0"
     inkscape:zoom="0.57370932"
     inkscape:cx="-466.264"
     inkscape:cy="252.74123"
     inkscape:window-width="1516"
     inkscape:window-height="849"
     inkscape:window-x="404"
     inkscape:window-y="126"
     inkscape:window-maximized="0"
     inkscape:current-layer="layer1" />
  <defs
     id="defs2" />
  <g
     inkscape:label="Capa 1"
     inkscape:groupmode="layer"
     id="layer1"
     transform="translate(-17.381668,-81.626355)">
    <path
       style="fill:#f9e300;stroke-width:0.264583"
       d="m 17.924749,128.44006 c -1.135668,-1.13566 -0.793009,-1.76639 3.989973,-7.34421 l 4.350657,-5.07366 -2.652503,-0.13229 c -2.418765,-0.12064 -2.69891,-0.18971 -3.179152,-0.78387 -0.900595,-1.11422 -0.492286,-1.86393 3.61668,-6.64077 2.110797,-2.45389 3.837812,-4.52565 3.837812,-4.60391 0,-0.0783 -0.650205,-0.14229 -1.444901,-0.14229 -1.603195,0 -2.523849,-0.6388 -2.523849,-1.75119 0,-0.36721 1.278428,-2.158689 3.356782,-4.703929 3.59827,-4.406594 3.731755,-4.4863 4.330261,-2.58569 0.515663,1.63753 1.469123,2.85772 2.697785,3.45251 2.983894,1.44448 5.95966,-0.0109 7.059118,-3.45251 0.170614,-0.53406 0.467606,-1.101656 0.659984,-1.261316 0.349544,-0.290095 0.633185,0.02371 5.79377,6.409816 1.357553,1.679949 1.537523,2.534169 0.708551,3.363149 -0.400883,0.40088 -0.881943,0.52916 -1.984375,0.52916 -0.800364,0 -1.455208,0.0705 -1.455208,0.1566 0,0.0861 1.648444,2.08043 3.663209,4.43177 4.078308,4.75962 4.357678,5.17374 4.122448,6.11097 -0.276864,1.10311 -0.83146,1.33138 -3.575046,1.4715 l -2.590361,0.13229 4.35777,5.10275 c 2.691827,3.152 4.416387,5.39585 4.511107,5.86944 0.1191,0.59549 0.002,0.9183 -0.52566,1.44568 l -0.679,0.679 H 36.487175 18.603746 Z m 25.375447,-5.97618 c 1.100794,-1.30091 0.190244,-3.24023 -1.521354,-3.24023 -1.602076,0 -2.486486,1.58366 -1.702496,3.04856 0.597159,1.11581 2.353519,1.22023 3.22385,0.19167 z M 32.716862,111.88055 c 1.100794,-1.30091 0.190244,-3.24024 -1.521354,-3.24024 -1.602075,0 -2.486486,1.58367 -1.702495,3.04857 0.597158,1.1158 2.353518,1.22023 3.223849,0.19167 z m 3.228703,-17.442039 c -0.106741,-0.17271 -0.519189,-1.160474 -0.916556,-2.195035 L 34.306527,90.362457 32.221851,89.52686 c -1.719059,-0.689047 -2.084676,-0.937777 -2.084676,-1.418213 0,-0.480224 0.365104,-0.729045 2.077437,-1.415788 l 2.077437,-0.833171 0.848227,-2.116666 c 0.640017,-1.597094 0.970638,-2.116667 1.346899,-2.116667 0.376261,0 0.706882,0.519573 1.346899,2.116667 l 0.848227,2.116666 2.077437,0.833171 c 1.712333,0.686743 2.077437,0.935564 2.077437,1.415788 0,0.480245 -0.365093,0.729014 -2.077799,1.415787 l -2.077802,0.833171 -0.832615,2.113813 c -0.804773,2.043123 -1.446514,2.706343 -1.903394,1.967093 z"
       id="path843" />
  </g>
</svg>
